<svg xmlns="http://www.w3.org/2000/svg" style="display: none;">
    <symbol id="icon-rectangle-plus" viewBox="0 0 24 24">
        <path d="M19,6H22V8H19V11H17V8H14V6H17V3H19V6M17,17V14H19V19H3V6H11V8H5V17H17Z" />
    </symbol>
    <symbol id="icon-textbox" viewBox="0 0 24 24">
        <path d="M21,6V8H3V6H21M3,18H12V16H3V18M3,13H21V11H3V13Z" />
    </symbol>
    <symbol id="icon-export-json" viewBox="0 0 24 24">
        <path d="M5,3H7V5H5V10A2,2 0 0,1 3,12A2,2 0 0,1 5,14V19H7V21H5C3.93,20.73 3,20.1 3,19V15A2,2 0 0,0 1,13H0V11H1A2,2 0 0,0 3,9V5A2,2 0 0,1 5,3M19,3A2,2 0 0,1 21,5V9A2,2 0 0,0 23,11H24V13H23A2,2 0 0,0 21,15V19A2,2 0 0,1 19,21H17V19H19V14A2,2 0 0,1 21,12A2,2 0 0,1 19,10V5H17V3H19M12,15A1,1 0 0,1 13,16A1,1 0 0,1 12,17A1,1 0 0,1 11,16A1,1 0 0,1 12,15M8,15A1,1 0 0,1 9,16A1,1 0 0,1 8,17A1,1 0 0,1 7,16A1,1 0 0,1 8,15M16,15A1,1 0 0,1 17,16A1,1 0 0,1 16,17A1,1 0 0,1 15,16A1,1 0 0,1 16,15Z" />
    </symbol>
    <symbol id="icon-barcode" viewBox="0 0 24 24">
        <path d="M2,6H4V18H2V6M5,6H6V18H5V6M7,6H10V18H7V6M11,6H12V18H11V6M14,6H16V18H14V6M17,6H20V18H17V6M21,6H22V18H21V6Z" />
    </symbol>
    <symbol id="icon-qrcode" viewBox="0 0 24 24">
        <path d="M3,11H5V13H3V11M11,5H13V9H11V5M9,11H13V15H11V13H9V11M15,11H17V13H19V11H21V13H19V15H21V19H19V21H17V19H13V21H11V17H15V15H17V13H15V11M19,19V15H17V19H19M15,3H21V9H15V3M17,5V7H19V5H17M3,3H9V9H3V3M5,5V7H7V5H5M3,15H9V21H3V15M5,17V19H7V17H5Z" />
    </symbol>
    <symbol id="icon-delete" viewBox="0 0 24 24">
        <path d="M6,19A2,2 0 0,0 8,21H16A2,2 0 0,0 18,19V7H6V19M8.46,11.88L9.87,10.47L12,12.59L14.12,10.47L15.53,11.88L13.41,14L15.53,16.12L14.12,17.53L12,15.41L9.88,17.53L8.47,16.12L10.59,14L8.46,11.88M15.5,4L14.5,3H9.5L8.5,4H5V6H19V4H15.5Z" />
    </symbol>
    <symbol id="icon-send-backwards" viewBox="0 0 24 24">
        <path d="M2,2H16V16H2V2M22,8V22H8V18H18V8H22M4,4V14H14V4H4Z" />
    </symbol>
    <symbol id="icon-bring-forward" viewBox="0 0 24 24">
        <path d="M2,2H16V16H2V2M22,8V22H8V18H10V20H20V10H18V8H22Z" />
    </symbol>
    <symbol id="icon-download" viewBox="0 0 24 24">
        <path d="M5,20H19V18H5M19,9H15V3H9V9H5L12,16L19,9Z" />
    </symbol>
    <symbol id="icon-cog" viewBox="0 0 24 24">
        <path d="M12,15.5A3.5,3.5 0 0,1 8.5,12A3.5,3.5 0 0,1 12,8.5A3.5,3.5 0 0,1 15.5,12A3.5,3.5 0 0,1 12,15.5M19.43,12.97C19.47,12.65 19.5,12.33 19.5,12C19.5,11.67 19.47,11.34 19.43,11L21.54,9.37C21.73,9.22 21.78,8.95 21.66,8.73L19.66,5.27C19.54,5.05 19.27,4.96 19.05,5.05L16.56,6.05C16.04,5.66 15.5,5.32 14.87,5.07L14.5,2.42C14.46,2.18 14.25,2 14,2H10C9.75,2 9.54,2.18 9.5,2.42L9.13,5.07C8.5,5.32 7.96,5.66 7.44,6.05L4.95,5.05C4.73,4.96 4.46,5.05 4.34,5.27L2.34,8.73C2.21,8.95 2.27,9.22 2.46,9.37L4.57,11C4.53,11.34 4.5,11.67 4.5,12C4.5,12.33 4.53,12.65 4.57,12.97L2.46,14.63C2.27,14.78 2.21,15.05 2.34,15.27L4.34,18.73C4.46,18.95 4.73,19.03 4.95,18.95L7.44,17.94C7.96,18.34 8.5,18.68 9.13,18.93L9.5,21.58C9.54,21.82 9.75,22 10,22H14C14.25,22 14.46,21.82 14.5,21.58L14.87,18.93C15.5,18.67 16.04,18.34 16.56,17.94L19.05,18.95C19.27,19.03 19.54,18.95 19.66,18.73L21.66,15.27C21.78,15.05 21.73,14.78 21.54,14.63L19.43,12.97Z" />
    </symbol>
    <symbol id="icon-pencil" viewBox="0 0 24 24">
        <path d="M20.71,7.04C21.1,6.65 21.1,6 20.71,5.63L18.37,3.29C18,2.9 17.35,2.9 16.96,3.29L15.12,5.12L18.87,8.87M3,17.25V21H6.75L17.81,9.93L14.06,6.18L3,17.25Z" />
    </symbol>
    <symbol id="icon-upload" viewBox="0 0 24 24">
        <path d="M9,16V10H5L12,3L19,10H15V16H9M5,20V18H19V20H5Z" />
    </symbol>
</svg>