<svg xmlns="http://www.w3.org/2000/svg" style="display: none;">
    <symbol id="icon-rectangle-plus" viewBox="0 0 24 24">
        <path d="M19,6H22V8H19V11H17V8H14V6H17V3H19V6M17,17V14H19V19H3V6H11V8H5V17H17Z" />
    </symbol>
    <symbol id="icon-textbox" viewBox="0 0 24 24">
        <path d="M21,6V8H3V6H21M3,18H12V16H3V18M3,13H21V11H3V13Z" />
    </symbol>
    <symbol id="icon-export-json" viewBox="0 0 24 24">
        <path d="M5,3H7V5H5V10A2,2 0 0,1 3,12A2,2 0 0,1 5,14V19H7V21H5C3.93,20.73 3,20.1 3,19V15A2,2 0 0,0 1,13H0V11H1A2,2 0 0,0 3,9V5A2,2 0 0,1 5,3M19,3A2,2 0 0,1 21,5V9A2,2 0 0,0 23,11H24V13H23A2,2 0 0,0 21,15V19A2,2 0 0,1 19,21H17V19H19V14A2,2 0 0,1 21,12A2,2 0 0,1 19,10V5H17V3H19M12,15A1,1 0 0,1 13,16A1,1 0 0,1 12,17A1,1 0 0,1 11,16A1,1 0 0,1 12,15M8,15A1,1 0 0,1 9,16A1,1 0 0,1 8,17A1,1 0 0,1 7,16A1,1 0 0,1 8,15M16,15A1,1 0 0,1 17,16A1,1 0 0,1 16,17A1,1 0 0,1 15,16A1,1 0 0,1 16,15Z" />
    </symbol>
    <symbol id="icon-barcode" viewBox="0 0 24 24">
        <path d="M2,6H4V18H2V6M5,6H6V18H5V6M7,6H10V18H7V6M11,6H12V18H11V6M14,6H16V18H14V6M17,6H20V18H17V6M21,6H22V18H21V6Z" />
    </symbol>
    <symbol id="icon-qrcode" viewBox="0 0 24 24">
        <path d="M3,11H5V13H3V11M11,5H13V9H11V5M9,11H13V15H11V13H9V11M15,11H17V13H19V11H21V13H19V15H21V19H19V21H17V19H13V21H11V17H15V15H17V13H15V11M19,19V15H17V19H19M15,3H21V9H15V3M17,5V7H19V5H17M3,3H9V9H3V3M5,5V7H7V5H5M3,15H9V21H3V15M5,17V19H7V17H5Z" />
    </symbol>
    <symbol id="icon-delete" viewBox="0 0 24 24">
        <path d="M6,19A2,2 0 0,0 8,21H16A2,2 0 0,0 18,19V7H6V19M8.46,11.88L9.87,10.47L12,12.59L14.12,10.47L15.53,11.88L13.41,14L15.53,16.12L14.12,17.53L12,15.41L9.88,17.53L8.47,16.12L10.59,14L8.46,11.88M15.5,4L14.5,3H9.5L8.5,4H5V6H19V4H15.5Z" />
    </symbol>
    <symbol id="icon-send-backwards" viewBox="0 0 24 24">
        <path d="M2,2H16V16H2V2M22,8V22H8V18H18V8H22M4,4V14H14V4H4Z" />
    </symbol>
    <symbol id="icon-bring-forward" viewBox="0 0 24 24">
        <path d="M2,2H16V16H2V2M22,8V22H8V18H10V20H20V10H18V8H22Z" />
    </symbol>
</svg>