<svg xmlns="http://www.w3.org/2000/svg" style="display: none;">
    <symbol id="icon-rectangle-plus" viewBox="0 0 24 24">
        <path d="M19,6H22V8H19V11H17V8H14V6H17V3H19V6M17,17V14H19V19H3V6H11V8H5V17H17Z" />
    </symbol>
    <symbol id="icon-text-plus" viewBox="0 0 24 24">
        <path d="M8.5,7H10.5L16,21H13.6L12.5,18H6.3L5.2,21H3L8.5,7M7.1,16H11.9L9.5,9.7L7.1,16M22,5V7H19V10H17V7H14V5H17V2H19V5H22Z" />
    </symbol>
    <symbol id="icon-export-json" viewBox="0 0 24 24">
        <path d="M5,3H7V5H5V10A2,2 0 0,1 3,12A2,2 0 0,1 5,14V19H7V21H5C3.93,20.73 3,20.1 3,19V15A2,2 0 0,0 1,13H0V11H1A2,2 0 0,0 3,9V5A2,2 0 0,1 5,3M19,3A2,2 0 0,1 21,5V9A2,2 0 0,0 23,11H24V13H23A2,2 0 0,0 21,15V19A2,2 0 0,1 19,21H17V19H19V14A2,2 0 0,1 21,12A2,2 0 0,1 19,10V5H17V3H19M12,15A1,1 0 0,1 13,16A1,1 0 0,1 12,17A1,1 0 0,1 11,16A1,1 0 0,1 12,15M8,15A1,1 0 0,1 9,16A1,1 0 0,1 8,17A1,1 0 0,1 7,16A1,1 0 0,1 8,15M16,15A1,1 0 0,1 17,16A1,1 0 0,1 16,17A1,1 0 0,1 15,16A1,1 0 0,1 16,15Z" />
    </symbol>
    <symbol id="icon-barcode" viewBox="0 0 24 24">
        <path d="M2,6H4V18H2V6M5,6H6V18H5V6M7,6H10V18H7V6M11,6H12V18H11V6M14,6H16V18H14V6M17,6H20V18H17V6M21,6H22V18H21V6Z" />
    </symbol>
    <symbol id="icon-qrcode-plus" viewBox="0 0 24 24">
        <path d="M5 5H7V7H5V5M1 1H11V11H1V1M3 3V9H9V3H3M5 17H7V19H5V17M1 13H11V23H1V13M3 15V21H9V15H3M13 13H17V15H19V13H23V15H19V17H23V23H19V21H15V23H13V21H15V19H13V13M21 21V19H19V21H21M19 17H17V15H15V19H19V17M17 2V5H14V7H17V10H19V7H22V5H19V2Z" />
    </symbol>
</svg>